<svg width="30" height="30" viewBox="0 0 30 30" fill="none" xmlns="http://www.w3.org/2000/svg">
<g clip-path="url(#clip0_364_423)">
<rect y="12.1955" width="17.0737" height="17.0738" fill="#7595FD"/>
<path d="M7.75635 22.9032L8.06124 25.6106L10.0369 23.7325L13.4151 14.4639C12.5858 14.2566 11.854 13.8419 11.2565 13.2687L7.75635 22.9032ZM18.0128 13.2687C17.4152 13.8419 16.6713 14.2566 15.8542 14.4639L19.2323 23.7325L21.208 25.6106L21.5251 22.9032L18.0128 13.2687V13.2687ZM18.2201 10.4881C18.586 8.58563 17.4884 6.90264 15.8542 6.31726V4.87818C15.8542 4.20743 15.3054 3.65863 14.6346 3.65863C13.9639 3.65863 13.4151 4.20743 13.4151 4.87818V6.31726C12.0004 6.82947 10.976 8.17098 10.976 9.7564C10.976 12.0004 13.0004 13.7809 15.3176 13.3541C16.7567 13.0858 17.9396 11.9272 18.2201 10.4881V10.4881ZM14.6346 10.976C13.9639 10.976 13.4151 10.4272 13.4151 9.7564C13.4151 9.08564 13.9639 8.53684 14.6346 8.53684C15.3054 8.53684 15.8542 9.08564 15.8542 9.7564C15.8542 10.4272 15.3054 10.976 14.6346 10.976Z" fill="#292E3D"/>
</g>
<defs>
<clipPath id="clip0_364_423">
<rect width="29.2693" height="29.2693" fill="white"/>
</clipPath>
</defs>
</svg>
