<svg width="30" height="30" viewBox="0 0 30 30" fill="none" xmlns="http://www.w3.org/2000/svg">
<g clip-path="url(#clip0_364_411)">
<rect x="6.10352e-05" y="12.1955" width="17.0737" height="17.0738" fill="#7595FD"/>
<path d="M13.4151 7.31731H17.0738L21.0861 3.29278C21.1995 3.17847 21.3344 3.08774 21.483 3.02583C21.6316 2.96391 21.791 2.93204 21.952 2.93204C22.113 2.93204 22.2724 2.96391 22.421 3.02583C22.5696 3.08774 22.7045 3.17847 22.8179 3.29278L25.9643 6.45142C26.1915 6.67992 26.319 6.98902 26.319 7.31121C26.319 7.6334 26.1915 7.9425 25.9643 8.17099L23.1715 10.976H13.4151V13.4151C13.4151 13.7385 13.2866 14.0487 13.0579 14.2774C12.8292 14.5061 12.519 14.6346 12.1956 14.6346C11.8721 14.6346 11.5619 14.5061 11.3332 14.2774C11.1045 14.0487 10.976 13.7385 10.976 13.4151V9.75641C10.976 9.10952 11.233 8.48912 11.6904 8.0317C12.1478 7.57428 12.7682 7.31731 13.4151 7.31731ZM6.09779 13.4151V18.2933L3.30502 21.0861C3.07787 21.3146 2.95038 21.6237 2.95038 21.9459C2.95038 22.268 3.07787 22.5771 3.30502 22.8056L6.45146 25.9643C6.56484 26.0786 6.69972 26.1693 6.84833 26.2312C6.99695 26.2931 7.15635 26.325 7.31735 26.325C7.47834 26.325 7.63774 26.2931 7.78636 26.2312C7.93497 26.1693 8.06986 26.0786 8.18323 25.9643L13.4151 20.7324H18.2933C18.6168 20.7324 18.927 20.6039 19.1557 20.3752C19.3844 20.1465 19.5129 19.8363 19.5129 19.5128V18.2933H20.7324C21.0559 18.2933 21.3661 18.1648 21.5948 17.9361C21.8235 17.7074 21.952 17.3972 21.952 17.0737V15.8542H23.1715C23.495 15.8542 23.8052 15.7257 24.0339 15.497C24.2626 15.2683 24.3911 14.9581 24.3911 14.6346V13.4151H15.8542V14.6346C15.8542 15.2815 15.5972 15.9019 15.1398 16.3593C14.6824 16.8168 14.062 17.0737 13.4151 17.0737H10.976C10.3291 17.0737 9.70872 16.8168 9.2513 16.3593C8.79388 15.9019 8.5369 15.2815 8.5369 14.6346V10.976L6.09779 13.4151Z" fill="#292E3D"/>
</g>
<defs>
<clipPath id="clip0_364_411">
<rect width="29.2693" height="29.2693" fill="white"/>
</clipPath>
</defs>
</svg>
