<svg width="30" height="30" viewBox="0 0 30 30" fill="none" xmlns="http://www.w3.org/2000/svg">
<g clip-path="url(#clip0_364_429)">
<rect x="6.10352e-05" y="12.1955" width="17.0737" height="17.0738" fill="#7595FD"/>
<path d="M25.6106 17.0738C25.6106 16.403 25.0618 15.8542 24.3911 15.8542H21.952V18.2933H24.3911C25.0618 18.2933 25.6106 17.7445 25.6106 17.0738ZM24.3911 20.7324H21.952V23.1715H24.3911C25.0618 23.1715 25.6106 22.6227 25.6106 21.952C25.6106 21.2812 25.0618 20.7324 24.3911 20.7324ZM14.6347 17.0738H12.1956V21.952H14.6347C14.6347 23.2935 15.7323 24.3911 17.0738 24.3911H20.7324V14.6346H17.0738C15.7323 14.6346 14.6347 15.7322 14.6347 17.0738Z" fill="white"/>
<path d="M6.0978 15.8542C6.0978 14.5126 7.1954 13.415 8.53691 13.415H10.3662C12.72 13.415 14.6347 11.5003 14.6347 9.14661C14.6347 6.79287 12.72 4.87817 10.3662 4.87817H6.0978C5.42704 4.87817 4.87824 5.42697 4.87824 6.09773C4.87824 6.76848 5.42704 7.31728 6.0978 7.31728H10.3662C11.3785 7.31728 12.1956 8.13438 12.1956 9.14661C12.1956 10.1588 11.3785 10.9759 10.3662 10.9759H8.53691C5.84169 10.9759 3.65869 13.1589 3.65869 15.8542C3.65869 18.5494 5.84169 20.7324 8.53691 20.7324H10.976V18.2933H8.53691C7.1954 18.2933 6.0978 17.1957 6.0978 15.8542Z" fill="white"/>
</g>
<defs>
<clipPath id="clip0_364_429">
<rect width="29.2693" height="29.2693" fill="white"/>
</clipPath>
</defs>
</svg>
