<svg width="30" height="30" viewBox="0 0 30 30" fill="none" xmlns="http://www.w3.org/2000/svg">
<g clip-path="url(#clip0_152_562)">
<path fill-rule="evenodd" clip-rule="evenodd" d="M0 14.7164C0 21.9922 5.28433 28.0424 12.1955 29.2693V18.6994H8.53688V14.6346H12.1955V11.3821C12.1955 7.72343 14.5529 5.69166 17.8872 5.69166C18.9433 5.69166 20.0824 5.85386 21.1385 6.01606V9.75643H19.2689C17.4799 9.75643 17.0738 10.6504 17.0738 11.7894V14.6346H20.9763L20.3263 18.6994H17.0738V29.2693C23.985 28.0424 29.2693 21.9934 29.2693 14.7164C29.2693 6.62218 22.6837 0 14.6346 0C6.58559 0 0 6.62218 0 14.7164Z" fill="#3D445C"/>
</g>
<defs>
<clipPath id="clip0_152_562">
<rect width="29.2693" height="29.2693" fill="white"/>
</clipPath>
</defs>
</svg>
