<svg width="20" height="13" viewBox="0 0 20 13" fill="none" xmlns="http://www.w3.org/2000/svg">
<path fill-rule="evenodd" clip-rule="evenodd" d="M19.025 6.21972C19.025 6.03646 18.9535 5.86071 18.826 5.73112C18.6986 5.60154 18.5258 5.52874 18.3456 5.52874L2.32076 5.52874L6.59705 1.18107C6.66022 1.11683 6.71032 1.04056 6.74451 0.956618C6.7787 0.872678 6.7963 0.782712 6.7963 0.691856C6.7963 0.601 6.7787 0.511034 6.74451 0.427094C6.71032 0.343154 6.66022 0.266884 6.59705 0.20264C6.53388 0.138395 6.45888 0.0874334 6.37635 0.0526643C6.29381 0.0178953 6.20535 -1.20927e-07 6.11601 -1.19186e-07C6.02668 -1.17445e-07 5.93822 0.0178953 5.85568 0.0526644C5.77315 0.0874334 5.69815 0.138395 5.63498 0.20264L0.199606 5.73051C0.136333 5.79469 0.0861339 5.87094 0.0518822 5.95489C0.0176306 6.03884 -1.53696e-07 6.12883 -1.55975e-07 6.21972C-1.58254e-07 6.31061 0.0176306 6.40061 0.0518822 6.48455C0.0861339 6.5685 0.136333 6.64475 0.199606 6.70894L5.63498 12.2368C5.69815 12.3011 5.77315 12.352 5.85568 12.3868C5.93822 12.4216 6.02668 12.4394 6.11601 12.4394C6.20535 12.4394 6.29381 12.4216 6.37635 12.3868C6.45888 12.352 6.53388 12.3011 6.59704 12.2368C6.66021 12.1726 6.71032 12.0963 6.74451 12.0124C6.7787 11.9284 6.7963 11.8384 6.7963 11.7476C6.7963 11.6567 6.7787 11.5668 6.74451 11.4828C6.71032 11.3989 6.66021 11.3226 6.59704 11.2584L2.32076 6.91071L18.3456 6.91071C18.5258 6.91071 18.6986 6.83791 18.826 6.70832C18.9535 6.57874 19.025 6.40298 19.025 6.21972Z" fill="white"/>
</svg>
