<svg width="30" height="30" viewBox="0 0 30 30" fill="none" xmlns="http://www.w3.org/2000/svg">
<g clip-path="url(#clip0_152_564)">
<path d="M14.6346 0.585205C6.87536 0.585205 0.585388 6.87518 0.585388 14.6345C0.585388 22.3938 6.87536 28.6837 14.6346 28.6837C22.3939 28.6837 28.6839 22.3938 28.6839 14.6345C28.6839 6.87518 22.3939 0.585205 14.6346 0.585205ZM11.1955 20.4576H8.35053V11.3022H11.1955V20.4576ZM9.75546 10.1782C8.85689 10.1782 8.27589 9.54161 8.27589 8.75426C8.27589 7.95082 8.87445 7.33324 9.79204 7.33324C10.7096 7.33324 11.2716 7.95082 11.2892 8.75426C11.2892 9.54161 10.7096 10.1782 9.75546 10.1782ZM21.5861 20.4576H18.7411V15.3838C18.7411 14.2027 18.3284 13.4008 17.2996 13.4008C16.5137 13.4008 16.0469 13.9437 15.8405 14.4662C15.7644 14.652 15.7454 14.9154 15.7454 15.1774V20.4561H12.899V14.2218C12.899 13.0788 12.8624 12.1232 12.8243 11.3007H15.2961L15.4264 12.5724H15.4835C15.8581 11.9753 16.7757 11.0943 18.3109 11.0943C20.1826 11.0943 21.5861 12.3485 21.5861 15.0442V20.4576V20.4576Z" fill="#3D445C"/>
</g>
<defs>
<clipPath id="clip0_152_564">
<rect width="29.2693" height="29.2693" fill="white"/>
</clipPath>
</defs>
</svg>
