<svg width="30" height="30" viewBox="0 0 30 30" fill="none" xmlns="http://www.w3.org/2000/svg">
<path d="M25.6106 9.75639C26.2574 9.75639 26.8778 10.0134 27.3353 10.4708C27.7927 10.9282 28.0497 11.5486 28.0497 12.1955V17.0737C28.0497 17.7206 27.7927 18.341 27.3353 18.7984C26.8778 19.2558 26.2574 19.5128 25.6106 19.5128H24.3154C24.0181 21.8706 22.8705 24.0388 21.0881 25.6106C19.3057 27.1824 17.011 28.0497 14.6346 28.0497V25.6106C16.5752 25.6106 18.4364 24.8397 19.8087 23.4674C21.181 22.0951 21.9519 20.2339 21.9519 18.2933V10.9759C21.9519 9.03527 21.181 7.17408 19.8087 5.80181C18.4364 4.42955 16.5752 3.65862 14.6346 3.65862C12.6939 3.65862 10.8327 4.42955 9.46044 5.80181C8.08818 7.17408 7.31725 9.03527 7.31725 10.9759V19.5128H3.65859C3.0117 19.5128 2.3913 19.2558 1.93388 18.7984C1.47646 18.341 1.21948 17.7206 1.21948 17.0737V12.1955C1.21948 11.5486 1.47646 10.9282 1.93388 10.4708C2.3913 10.0134 3.0117 9.75639 3.65859 9.75639H4.95376C5.25136 7.39886 6.39902 5.23096 8.18139 3.65944C9.96376 2.08793 12.2583 1.22083 14.6346 1.22083C17.0108 1.22083 19.3054 2.08793 21.0877 3.65944C22.8701 5.23096 24.0178 7.39886 24.3154 9.75639H25.6106ZM9.46366 19.2506L10.7564 17.1823C11.9187 17.9104 13.263 18.2955 14.6346 18.2933C16.0061 18.2955 17.3504 17.9104 18.5128 17.1823L19.8055 19.2506C18.2557 20.2216 16.4633 20.7352 14.6346 20.7324C12.8058 20.7352 11.0134 20.2216 9.46366 19.2506Z" fill="#F9995D"/>
</svg>
