<svg width="30" height="30" viewBox="0 0 30 30" fill="none" xmlns="http://www.w3.org/2000/svg">
<path d="M26.5741 20.8056L19.8055 14.037L21.7202 12.1223L17.1469 7.54901L15.2322 9.46371L8.46368 2.69519L2.69519 8.46368L9.46371 15.2322L3.65864 21.0373V25.6106H8.23196L14.037 19.8055L20.8056 26.5741L26.5741 20.8056V20.8056ZM11.1955 13.5004L6.14653 8.46368L8.46368 6.14653L10.0125 7.69536L8.56124 9.14663L10.2808 10.8662L11.7321 9.41493L13.5004 11.1833L11.1955 13.5004V13.5004ZM15.7688 18.0738L18.086 15.7566L19.8543 17.525L18.403 18.9762L20.1226 20.6958L21.5739 19.2445L23.1227 20.7934L20.8056 23.1105L15.7688 18.0738V18.0738ZM18.4555 6.24775L21.5507 3.1513L26.1216 7.72219L23.0264 10.8186L18.4555 6.24775Z" fill="#F9995D"/>
</svg>
