<svg width="30" height="30" viewBox="0 0 30 30" fill="none" xmlns="http://www.w3.org/2000/svg">
<g clip-path="url(#clip0_364_405)">
<rect y="12.1955" width="17.0737" height="17.0738" fill="#7595FD"/>
<path d="M23.7813 3.6587C22.9729 3.65935 22.1978 3.98078 21.6262 4.55241C21.0545 5.12405 20.7331 5.89917 20.7324 6.70759C20.7324 7.14297 20.8276 7.5564 20.9934 7.93324L18.6092 10.615C17.7993 10.056 16.8384 9.75652 15.8542 9.75647C14.9518 9.75647 14.1176 10.0199 13.392 10.4467L10.6187 7.67469L10.5906 7.70274C10.8297 7.21736 10.976 6.6771 10.976 6.09781C10.976 5.3742 10.7614 4.66683 10.3594 4.06517C9.9574 3.4635 9.386 2.99456 8.71746 2.71765C8.04893 2.44073 7.3133 2.36828 6.60359 2.50945C5.89387 2.65062 5.24196 2.99907 4.73029 3.51075C4.21862 4.02242 3.87016 4.67433 3.72899 5.38404C3.58782 6.09375 3.66028 6.82939 3.93719 7.49792C4.21411 8.16645 4.68305 8.73786 5.28471 9.13988C5.88637 9.54189 6.59374 9.75647 7.31735 9.75647C7.89664 9.75647 8.43569 9.61012 8.92229 9.37109L8.89424 9.39914L11.6675 12.1712C11.2195 12.9152 10.9806 13.7662 10.976 14.6347C10.976 15.8506 11.4394 16.9506 12.1773 17.8067L9.03449 20.9483C8.68224 20.8073 8.30654 20.7341 7.92713 20.7325C6.24659 20.7325 4.87825 22.0996 4.87825 23.7813C4.87825 25.4631 6.24659 26.8302 7.92713 26.8302C9.60768 26.8302 10.976 25.4631 10.976 23.7813C10.976 23.3899 10.8955 23.0179 10.7602 22.6728L14.2212 19.2117C14.7347 19.3946 15.2786 19.5129 15.8542 19.5129C18.5446 19.5129 20.7324 17.325 20.7324 14.6347C20.7324 13.859 20.5337 13.1359 20.2105 12.4834L22.7923 9.5772C23.1045 9.68452 23.4338 9.75647 23.7813 9.75647C25.4631 9.75647 26.8302 8.38935 26.8302 6.70759C26.8302 5.02582 25.4631 3.6587 23.7813 3.6587ZM15.8542 17.0738C14.5091 17.0738 13.4151 15.9799 13.4151 14.6347C13.4151 13.2895 14.5091 12.1956 15.8542 12.1956C17.1994 12.1956 18.2933 13.2895 18.2933 14.6347C18.2933 15.9799 17.1994 17.0738 15.8542 17.0738Z" fill="white"/>
</g>
<defs>
<clipPath id="clip0_364_405">
<rect width="29.2693" height="29.2693" fill="white"/>
</clipPath>
</defs>
</svg>
