<svg width="30" height="30" viewBox="0 0 30 30" fill="none" xmlns="http://www.w3.org/2000/svg">
<g clip-path="url(#clip0_364_417)">
<rect y="12.1955" width="17.0737" height="17.0738" fill="#7595FD"/>
<path d="M21.9519 19.5128H19.5128V18.2933H9.75641V19.5128H7.3173V18.2933H2.43909V24.391H26.8302V18.2933H21.9519V19.5128ZM24.3911 9.75639H20.7324V7.31728C20.7324 5.97577 19.6348 4.87817 18.2933 4.87817H10.976C9.63445 4.87817 8.53686 5.97577 8.53686 7.31728V9.75639H4.87819C3.53669 9.75639 2.43909 10.854 2.43909 12.1955V17.0737H7.3173V14.6346H9.75641V17.0737H19.5128V14.6346H21.9519V17.0737H26.8302V12.1955C26.8302 10.854 25.7326 9.75639 24.3911 9.75639ZM18.2933 9.75639H10.976V7.31728H18.2933V9.75639Z" fill="white"/>
</g>
<defs>
<clipPath id="clip0_364_417">
<rect width="29.2693" height="29.2693" fill="white"/>
</clipPath>
</defs>
</svg>
