<svg width="20" height="13" viewBox="0 0 20 13" fill="none" xmlns="http://www.w3.org/2000/svg">
<path fill-rule="evenodd" clip-rule="evenodd" d="M-1.29082e-05 6.21973C-1.29245e-05 6.40299 0.0715683 6.57874 0.198985 6.70833C0.326401 6.83791 0.499215 6.91071 0.679409 6.91071L16.7043 6.91071L12.428 11.2584C12.3648 11.3226 12.3147 11.3989 12.2805 11.4828C12.2463 11.5668 12.2287 11.6567 12.2287 11.7476C12.2287 11.8385 12.2463 11.9284 12.2805 12.0124C12.3147 12.0963 12.3648 12.1726 12.428 12.2368C12.4911 12.3011 12.5661 12.352 12.6487 12.3868C12.7312 12.4216 12.8197 12.4395 12.909 12.4395C12.9983 12.4395 13.0868 12.4216 13.1693 12.3868C13.2519 12.352 13.3269 12.3011 13.39 12.2368L18.8254 6.70895C18.8887 6.64476 18.9389 6.56851 18.9731 6.48456C19.0074 6.40061 19.025 6.31062 19.025 6.21973C19.025 6.12884 19.0074 6.03885 18.9731 5.9549C18.9389 5.87095 18.8887 5.7947 18.8254 5.73051L13.39 0.202647C13.3269 0.138402 13.2519 0.0874398 13.1693 0.0526708C13.0868 0.0179018 12.9983 6.71893e-06 12.909 6.71125e-06C12.8197 6.70358e-06 12.7312 0.0179017 12.6487 0.0526708C12.5661 0.0874398 12.4912 0.138402 12.428 0.202647C12.3648 0.266891 12.3147 0.34316 12.2805 0.4271C12.2463 0.51104 12.2287 0.601006 12.2287 0.691862C12.2287 0.782718 12.2463 0.872685 12.2805 0.956625C12.3147 1.04056 12.3648 1.11683 12.428 1.18108L16.7043 5.52875L0.679409 5.52875C0.499215 5.52875 0.326401 5.60154 0.198985 5.73113C0.0715684 5.86071 -1.28919e-05 6.03647 -1.29082e-05 6.21973Z" fill="white"/>
</svg>
