<svg width="30" height="30" viewBox="0 0 30 30" fill="none" xmlns="http://www.w3.org/2000/svg">
<g clip-path="url(#clip0_152_566)">
<path d="M14.6346 0.585205C6.87536 0.585205 0.585388 6.87518 0.585388 14.6345C0.585388 22.3938 6.87536 28.6837 14.6346 28.6837C22.3939 28.6837 28.6839 22.3938 28.6839 14.6345C28.6839 6.87518 22.3939 0.585205 14.6346 0.585205ZM20.3495 12.0939C20.3553 12.2139 20.3568 12.3339 20.3568 12.451C20.3568 16.1096 17.5747 20.3259 12.4848 20.3259C10.9808 20.3284 9.50808 19.8964 8.2437 19.0819C8.45883 19.1083 8.67981 19.1185 8.90372 19.1185C10.2003 19.1185 11.3931 18.678 12.3399 17.9346C11.7629 17.9232 11.2038 17.7322 10.7405 17.388C10.2773 17.0438 9.9329 16.5637 9.75546 16.0145C10.1698 16.0933 10.5967 16.0768 11.0038 15.9662C10.3775 15.8396 9.81428 15.5002 9.40965 15.0057C9.00502 14.5112 8.78387 13.8919 8.78372 13.253V13.2193C9.1569 13.4256 9.58423 13.5515 10.0379 13.5661C9.45076 13.1753 9.03512 12.5749 8.87598 11.8877C8.71684 11.2006 8.82623 10.4786 9.18178 9.86942C9.87686 10.7241 10.7437 11.4233 11.7261 11.9217C12.7085 12.4201 13.7847 12.7066 14.8849 12.7627C14.745 12.169 14.8052 11.5457 15.0561 10.9897C15.3071 10.4337 15.7346 9.97624 16.2724 9.68834C16.8101 9.40044 17.4279 9.29827 18.0297 9.39771C18.6315 9.49715 19.1836 9.79263 19.6002 10.2382C20.2195 10.1157 20.8134 9.88853 21.3563 9.56649C21.1499 10.2077 20.7178 10.7521 20.1402 11.0987C20.6888 11.0327 21.2244 10.8852 21.7295 10.6612C21.3585 11.2171 20.8912 11.7023 20.3495 12.0939V12.0939Z" fill="#3D445C"/>
</g>
<defs>
<clipPath id="clip0_152_566">
<rect width="29.2693" height="29.2693" fill="white"/>
</clipPath>
</defs>
</svg>
